<svg xmlns:xlink="http://www.w3.org/1999/xlink" xmlns="http://www.w3.org/2000/svg" width="70" height="69" viewBox="0 0 70 69" fill="none">
<path fill-rule="evenodd" clip-rule="evenodd" d="M35.0274 0.285645C41.7352 0.285645 47.9021 3.19993 52.2838 7.94279C50.2282 7.54279 48.2266 7.37136 46.2792 7.37136C39.8419 7.37136 33.6209 9.25707 28.2114 12.8571C25.8312 14.5142 23.7756 16.3999 21.9905 18.7428C18.7988 22.9142 16.5269 27.8856 16.4187 33.3142C16.3646 38.2285 18.0956 42.6856 21.72 45.8285C23.3969 47.2571 25.0739 48.3428 27.2377 49.1428C29.131 49.7714 31.1326 50.0571 33.08 49.9428C35.1897 49.8285 37.3535 49.3142 39.0845 47.8285C40.0583 47.0285 40.3828 45.8856 40.2746 44.7999C40.1665 43.5428 39.5714 42.5714 38.4895 42.1714C37.1371 41.6571 35.0815 41.4285 34.0537 42.7428C33.7291 43.1999 33.7832 43.7714 34.1078 44.2856C34.1619 44.3999 34.2701 44.5714 34.3242 44.6285C33.9996 44.6285 33.7291 44.4571 33.5668 44.2856C32.1604 42.8571 33.7291 41.2571 34.9733 40.6856C38.9223 38.8571 46.712 41.5428 44.1695 47.2571C43.0335 49.7714 40.0583 50.9142 37.1912 51.3142C35.0815 51.6571 32.9718 51.6571 31.0244 51.3142H30.9703C19.5021 49.3142 10.6846 38.6856 10.6846 25.9999C10.6846 11.8285 21.6118 0.285645 35.0274 0.285645Z" fill="white"/>
<path fill-rule="evenodd" clip-rule="evenodd" d="M54.9882 11.314C57.6389 15.4283 59.2617 20.3426 59.3158 25.6569C58.7208 25.0283 58.1257 24.4569 57.4225 24.0569C53.6358 21.714 46.9821 21.5998 42.9791 22.3426C38.976 23.0855 35.2435 23.9426 31.7273 26.514C28.2111 29.0283 24.8572 33.5426 24.4244 38.2283C24.1539 41.8855 25.2899 44.2855 29.6176 46.7998C31.4568 47.8855 34.1075 47.8855 36.0008 46.914C37.0286 46.3998 37.9482 44.7426 37.3532 43.714C36.8122 42.7426 34.973 42.4569 34.432 43.9426C34.1075 43.4855 34.6484 42.514 35.1353 42.3426C36.109 42.0569 37.1909 41.9998 38.0564 42.514C38.976 43.1426 39.8957 44.3426 39.6793 45.5426C39.4088 46.9712 38.2187 47.8283 36.9745 48.4569C35.4598 49.2569 33.5665 49.4855 31.8355 49.4283C29.8339 49.3712 27.7242 48.8569 25.9391 47.8283C23.7212 46.514 21.5574 44.7998 20.205 42.514C18.7444 40.1712 17.8789 37.314 17.8789 34.514C17.8789 28.7426 20.3132 24.2283 23.8294 19.9998C26.3719 16.914 28.9684 14.914 32.8633 12.8569C36.8122 10.8569 42.7627 8.97119 47.6854 8.97119C49.5246 8.97119 51.3638 9.31405 53.0949 9.99976C53.4735 10.114 54.1227 10.6283 54.9882 11.314Z" fill="white"/>
<path fill-rule="evenodd" clip-rule="evenodd" d="M27.1837 44.2855C24.8576 41.4855 25.2904 39.0284 26.4264 35.9426C28.1575 31.0855 32.431 28.3998 36.8127 26.5141C37.7864 26.1141 40.7075 25.1998 43.1418 24.7426C45.9548 24.2284 48.5513 24.4569 51.3643 24.8569C53.2576 25.1426 56.7738 26.7426 58.2344 28.0569C59.154 28.9141 58.9376 30.6284 58.7212 31.7712C57.8557 35.5998 56.2329 39.0855 53.9609 42.0569C54.61 37.8284 52.8249 36.3998 49.5791 34.9712C47.6858 34.1141 44.4401 33.5426 42.2222 33.4855C38.8683 33.3712 34.3243 34.7998 32.5392 36.7998C31.2409 38.2284 30.4835 39.1426 30.2672 41.0284C30.1049 42.5712 30.5917 43.9426 31.89 44.9712C32.5392 45.4284 33.1883 45.4284 33.8915 45.7141C34.2702 45.8284 35.4062 45.5426 35.7849 45.1998C36.5422 44.6284 36.3258 43.5998 35.6767 43.3141C35.6226 43.0855 36.2717 43.2569 36.434 43.4284C37.8946 44.7998 36.8127 45.8284 35.6767 46.3998C34.4325 47.0284 32.9719 47.0855 31.6736 46.8569C29.2935 46.4569 28.1034 45.4284 27.1837 44.2855Z" fill="white"/>
<path fill-rule="evenodd" clip-rule="evenodd" d="M27.1985 65.9049C28.0875 63.6067 28.9264 61.4524 29.75 59.2927C29.864 58.9934 29.9253 58.7404 30.3605 58.7388C30.7945 58.7369 30.7868 59.0244 30.8512 59.2712C31.6596 62.3746 32.462 65.4799 33.267 68.5888C31.6735 68.8008 31.6769 68.8003 31.3555 67.4057C30.9861 65.8032 30.6099 64.2024 30.0564 62.5823C29.2794 64.3987 28.51 66.2183 27.7175 68.0283C27.5921 68.3145 27.6086 68.7974 27.1732 68.7942C26.7479 68.7913 26.7494 68.3125 26.6221 68.0266C25.8144 66.2128 25.0322 64.3884 24.1387 62.3304C23.6528 64.4237 23.1809 66.2541 22.8174 68.1045C22.6212 69.1038 21.878 68.6531 21.4171 68.6369C20.671 68.6106 21.2279 68.0522 21.2766 67.83C21.885 65.0545 22.5384 62.288 23.2155 59.5271C23.2848 59.2446 23.1344 58.7503 23.768 58.7421C24.3435 58.7347 24.3241 59.177 24.4512 59.475C25.2446 61.3355 26.0077 63.2081 26.7865 65.0747C26.8877 65.3172 27.02 65.5476 27.1985 65.9049Z" fill="white"/>
<path fill-rule="evenodd" clip-rule="evenodd" d="M18.4215 63.6943C18.4215 63.542 18.4268 63.3894 18.4208 63.2372C18.3294 60.9908 17.132 59.8411 14.8775 59.8342C12.854 59.8276 11.6436 61.0703 11.5606 63.2517C11.5467 63.6163 11.5433 63.9855 11.5836 64.3476C11.8105 66.3795 13.0346 67.5889 14.8513 67.5951C17.1407 67.6032 18.4101 66.218 18.4215 63.6943ZM14.9835 58.572C18.3379 58.5968 20.3004 60.5083 20.2684 63.7201C20.2357 66.9916 18.1874 68.8957 14.742 68.8566C11.6879 68.822 9.72671 66.7587 9.74327 63.5974C9.75925 60.55 11.8464 58.5485 14.9835 58.572Z" fill="white"/>
<path fill-rule="evenodd" clip-rule="evenodd" d="M67.8944 63.6327C67.8975 61.1008 66.7425 59.8542 64.3773 59.8357C62.2153 59.819 61.0284 61.1451 61.0217 63.5877C61.0211 63.8314 61.0204 64.0766 61.0464 64.3182C61.2826 66.5109 62.5944 67.6934 64.6671 67.5893C66.7253 67.4859 67.8914 66.0563 67.8944 63.6327ZM64.3468 68.8564C61.2078 68.859 59.2002 66.8184 59.212 63.6366C59.2232 60.5969 61.261 58.5746 64.3167 58.5713C67.7598 58.5673 69.7546 60.447 69.7371 63.6788C69.7194 66.9243 67.7107 68.8537 64.3468 68.8564Z" fill="white"/>
<path fill-rule="evenodd" clip-rule="evenodd" d="M46.4667 65.5639C46.4667 63.4216 46.4664 61.5357 46.4669 59.6499C46.4671 58.8118 46.9945 58.4857 47.8454 58.7527C48.1746 58.8562 48.0781 59.076 48.0785 59.264C48.0846 62.2615 48.0853 65.2592 48.0766 68.2566C48.076 68.4441 48.2054 68.7182 47.9007 68.8015C47.5601 68.8948 47.4014 68.6292 47.2154 68.4206C45.6461 66.659 44.0738 64.9002 42.5005 63.142C42.0879 62.681 41.6694 62.2249 41.0748 61.5695V64.0779C41.0746 65.3932 41.0187 66.7115 41.0956 68.0227C41.1411 68.7995 40.6771 68.6422 40.2133 68.6824C39.6488 68.7318 39.4538 68.5871 39.4614 67.9925C39.4979 65.1481 39.4724 62.3032 39.4871 59.4586C39.4882 59.2249 39.2928 58.8739 39.7105 58.7672C40.0702 58.6756 40.2849 58.9047 40.5052 59.145C42.2479 61.0445 43.9995 62.9362 45.7498 64.829C45.9148 65.0075 46.0893 65.1776 46.4667 65.5639Z" fill="white"/>
<path fill-rule="evenodd" clip-rule="evenodd" d="M8.98223 68.5542C7.59486 68.9939 6.84541 68.4389 6.20426 67.4549C5.55016 66.4508 4.73315 65.547 4.02177 64.5758C3.74582 64.1989 3.61069 64.2325 3.25767 64.5271C2.14815 65.4535 1.79931 66.6056 2.01341 67.9509C2.13464 68.713 1.67199 68.6941 1.11686 68.6846C0.609296 68.6757 0.25132 68.7207 0.264642 67.9976C0.316787 65.1589 0.317168 62.318 0.264071 59.4793C0.250178 58.733 0.59997 58.7558 1.15987 58.7374C1.7858 58.7172 2.05128 58.8356 2.02236 59.5219C1.96184 60.9534 2.00409 62.389 2.00409 63.8244C2.38185 63.929 2.44447 63.6072 2.58092 63.4524C3.6459 62.2442 4.68843 61.0176 5.74199 59.7999C6.72799 58.6599 6.73009 58.6616 8.48818 58.825C7.39941 60.0765 6.38067 61.3022 5.29457 62.4693C4.86351 62.9325 4.90253 63.2216 5.27478 63.6916C6.53254 65.2799 7.73474 66.9089 8.98223 68.5542Z" fill="white"/>
<path fill-rule="evenodd" clip-rule="evenodd" d="M50.7069 63.6707C50.7082 62.2343 50.7294 60.7974 50.6963 59.3615C50.6854 58.8853 50.8129 58.7371 51.3203 58.7434C53.4744 58.7694 55.6293 58.7643 57.7836 58.7454C58.2453 58.7411 58.4684 58.8144 58.4552 59.3347C58.4431 59.8201 58.3582 60.0419 57.78 60.0276C56.2286 59.9896 54.6751 60.0312 53.1229 60.0041C52.6182 59.9953 52.4172 60.0918 52.4081 60.642C52.3729 62.7618 52.3491 62.7614 54.5417 62.7618C55.0803 62.7618 55.6196 62.7763 56.1576 62.7565C56.574 62.7409 56.85 62.7412 56.858 63.3034C56.8665 63.9021 56.583 63.9351 56.1144 63.9081C55.6409 63.881 55.1642 63.8945 54.6892 63.9041C53.9666 63.9191 52.999 63.681 52.5853 64.0366C52.0966 64.4573 52.4631 65.4112 52.4302 66.1327C52.4007 66.7732 52.3735 67.4208 52.4357 68.0569C52.5139 68.8588 51.9514 68.6573 51.5173 68.671C51.0851 68.6848 50.6563 68.7893 50.6871 68.0712C50.7493 66.6065 50.7056 65.1378 50.7069 63.6707Z" fill="white"/>
<path fill-rule="evenodd" clip-rule="evenodd" d="M34.8224 68.4859L34.8213 58.9421C34.8651 58.8937 34.9086 58.8454 34.9524 58.7973C36.5099 58.6853 36.5099 58.6853 36.5099 60.188C36.5097 62.6602 36.4658 65.1335 36.5337 67.6039C36.5575 68.4718 36.3552 68.8553 35.4211 68.6761C35.2679 68.6467 35.1087 68.6455 34.952 68.6313C34.9086 68.5828 34.8656 68.5344 34.8224 68.4859Z" fill="white"/>
</svg>